PathFileType	4	(X/Y/Z)	/Users/itak/Documents/Research/Walk-IL/dataset/trc/00386_00012.trc
DataRate	CameraRate	NumFrames	NumMarkers	Units	OrigDataRate	OrigDataStartFrame	OrigNumFrames
100.000000	100.000000	4	54	mm	100.000000	289	578
Frame#	Time	RPSI			LPSI			L3			STRN			T10			C7			CLAV			RBAK			LBAK			LSHO			LUPA			LAEL			LAOL			LWTS			LWPS			LFRA			LIFD			LHPS			LHTS			RSHO			RUPA			RAEL			RAOL			RWTS			RWPS			RFRA			RIFD			RHTS			RHPS			RBHD			LFHD			RFHD			LBHD			RHIP			RASI			LASI			LKNE			LTHI			LANK			LTIP			LTOE			LMT1			LMT5			LHEE			RKNE			RTHI			RANK			RTIP			RTOE			RMT1			RMT5			RHEE			LHIP			*53			
		X1	Y1	Z1	X2	Y2	Z2	X3	Y3	Z3	X4	Y4	Z4	X5	Y5	Z5	X6	Y6	Z6	X7	Y7	Z7	X8	Y8	Z8	X9	Y9	Z9	X10	Y10	Z10	X11	Y11	Z11	X12	Y12	Z12	X13	Y13	Z13	X14	Y14	Z14	X15	Y15	Z15	X16	Y16	Z16	X17	Y17	Z17	X18	Y18	Z18	X19	Y19	Z19	X20	Y20	Z20	X21	Y21	Z21	X22	Y22	Z22	X23	Y23	Z23	X24	Y24	Z24	X25	Y25	Z25	X26	Y26	Z26	X27	Y27	Z27	X28	Y28	Z28	X29	Y29	Z29	X30	Y30	Z30	X31	Y31	Z31	X32	Y32	Z32	X33	Y33	Z33	X34	Y34	Z34	X35	Y35	Z35	X36	Y36	Z36	X37	Y37	Z37	X38	Y38	Z38	X39	Y39	Z39	X40	Y40	Z40	X41	Y41	Z41	X42	Y42	Z42	X43	Y43	Z43	X44	Y44	Z44	X45	Y45	Z45	X46	Y46	Z46	X47	Y47	Z47	X48	Y48	Z48	X49	Y49	Z49	X50	Y50	Z50	X51	Y51	Z51	X52	Y52	Z52	X53	Y53	Z53	X54	Y54	Z54	

290	2.89	338.677490234375	957.3589477539062	-17.69462776184082	329.4772644042969	951.8551025390625	-149.8575592041016	337.2156982421875	1044.223022460938	-82.73827362060547	578.3712158203125	1207.542114257812	-92.90298461914062	332.5314331054688	1146.815551757812	-92.16563415527344	362.7153930664062	1397.645874023438	-111.3988952636719	519.9522705078125	1324.347045898438	-98.74379730224609	324.9754028320312	1252.999267578125	-39.70712280273438	352.1593017578125	1358.387451171875	-213.2248382568359	441.6407165527344	1374.660278320312	-263.133056640625	408.697509765625	1262.25927734375	-333.2288818359375	400.6358642578125	1066.735717773438	-363.6922607421875	339.2454528808594	1051.628662109375	-304.6551208496094	469.5884704589844	843.9182739257812	-322.1508178710938	422.426025390625	837.364501953125	-389.4624328613281	408.1720886230469	962.4500122070312	-377.4426879882812	452.9435119628906	666.2560424804688	-332.8445129394531	427.2273864746094	751.095947265625	-383.6001281738281	479.748779296875	747.3900146484375	-346.4262390136719	416.6287231445312	1383.340942382812	49.33678817749023	401.9832458496094	1321.066528320312	110.239372253418	404.5584106445312	1063.5810546875	166.0915679931641	386.0379943847656	1045.685913085938	72.90568542480469	576.3173217773438	882.2445068359375	147.2230529785156	536.5389404296875	861.715576171875	205.9769744873047	441.2381591796875	1002.587158203125	184.5133819580078	620.7882080078125	715.0504150390625	156.0178070068359	620.18701171875	786.578125	171.1230163574219	562.629638671875	776.0867919921875	207.9869384765625	387.2069702148438	1578.926147460938	-24.71303176879883	530.910400390625	1605.082763671875	-162.1632995605469	517.3828735351562	1609.125122070312	-39.92131805419922	386.9042663574219	1568.912841796875	-186.4563598632812	431.2613220214844	942.81689453125	91.31493377685547	553.8390502929688	964.4747924804688	28.35910987854004	527.591796875	956.6759643554688	-232.4142150878906	551.811767578125	466.0673828125	-221.5485687255859	517.3703002929688	603.6185913085938	-243.7831726074219	430.9219665527344	41.10473251342773	-180.8010559082031	496.5631103515625	235.1310882568359	-209.6049499511719	645.04931640625	34.1579475402832	-112.0084609985352	562.012939453125	35.20391845703125	-81.13806915283203	559.78955078125	41.64784240722656	-184.9034576416016	388.2138366699219	36.15846252441406	-126.7317810058594	622.3458251953125	486.9793395996094	57.36896896362305	567.5924072265625	737.039306640625	81.20901489257812	341.7638549804688	155.0835571289062	83.58306884765625	571.423583984375	372.5108642578125	58.65463256835938	465.1538696289062	43.84477996826172	5.790455341339111	406.7919921875	86.98278045654297	-18.30515480041504	397.4403381347656	89.75343322753906	83.08464050292969	273.7991333007812	191.9972534179688	35.44515228271484	409.4944763183594	949.810791015625	-267.7292175292969	nan	nan	nan	
291	2.9	331.40380859375	956.7189331054688	-17.45524024963379	321.9508666992188	951.4807739257812	-149.71484375	329.6007385253906	1043.427124023438	-82.15531921386719	569.8890991210938	1206.768432617188	-92.31672668457031	324.4776611328125	1146.026000976562	-91.19511413574219	354.172607421875	1396.920166015625	-110.2780609130859	511.3973999023438	1323.517456054688	-98.04364776611328	316.9507751464844	1252.1884765625	-38.39722442626953	343.2921142578125	1357.614990234375	-212.0211181640625	432.5154724121094	1373.724975585938	-262.2545776367188	398.3223876953125	1261.289672851562	-331.7890930175781	388.707763671875	1066.20556640625	-362.7822570800781	328.5016174316406	1051.133422851562	-302.7642517089844	457.6093139648438	843.0941772460938	-323.2712707519531	409.158447265625	836.929443359375	-389.6890258789062	395.6283874511719	961.9703979492188	-377.0861206054688	440.469970703125	665.5362548828125	-334.5296936035156	413.7052917480469	750.6407470703125	-384.2423400878906	467.1027221679688	746.6851196289062	-348.1997375488281	408.3318481445312	1382.562255859375	50.2716178894043	393.7323608398438	1320.21142578125	111.1082077026367	396.0924682617188	1062.9482421875	167.0166931152344	377.8266906738281	1044.85595703125	73.70344543457031	567.6587524414062	881.4153442382812	148.4713592529297	527.8339233398438	860.9859619140625	207.2403411865234	432.6388549804688	1001.846008300781	185.4688568115234	612.3934936523438	714.3946533203125	157.8609924316406	611.6832885742188	785.9752807617188	172.8095703125	553.9999389648438	775.4309692382812	209.5092163085938	378.0700988769531	1578.035766601562	-24.03752708435059	521.3955688476562	1604.583129882812	-162.0186157226562	508.0682678222656	1608.917358398438	-39.73435974121094	377.5303344726562	1567.51171875	-185.8882598876953	424.1202697753906	941.4114990234375	91.34379577636719	546.6583251953125	962.9119873046875	29.03266143798828	520.2131958007812	956.596923828125	-231.8337860107422	548.399658203125	466.7865295410156	-221.7733001708984	512.4828491210938	603.9385375976562	-244.0399780273438	430.8232727050781	40.8716926574707	-181.0110168457031	495.016845703125	235.3966522216797	-209.9234924316406	645.0259399414062	34.1522216796875	-111.986701965332	562.0025024414062	35.30397796630859	-81.24633026123047	559.7612915039062	41.56262588500977	-185.0249786376953	388.2628784179688	36.06414794921875	-126.9986038208008	603.4420166015625	481.6255798339844	58.42657089233398	556.07568359375	733.1873168945312	81.21259307861328	311.8265380859375	159.3426208496094	83.36766052246094	549.009521484375	368.9615478515625	59.42389297485352	430.1337280273438	44.58364105224609	3.991434812545776	373.3133544921875	89.5648193359375	-19.56007194519043	364.4444580078125	91.55773162841797	82.03006744384766	245.3942565917969	199.5392913818359	35.74484634399414	402.0635375976562	949.7610473632812	-267.4511413574219	nan	nan	nan	
292	2.91	324.0792541503906	956.0223388671875	-17.25397109985352	314.4208374023438	950.9874267578125	-149.6051940917969	321.8955688476562	1042.518188476562	-81.58121490478516	561.32666015625	1205.90234375	-91.66950988769531	316.2812194824219	1145.137573242188	-90.19500732421875	345.5246276855469	1396.0849609375	-109.0867691040039	502.7339172363281	1322.587158203125	-97.27724456787109	308.76025390625	1251.265991210938	-37.02788543701172	334.2996826171875	1356.733276367188	-210.7388458251953	423.2516784667969	1372.675048828125	-261.3008728027344	387.9444580078125	1260.20166015625	-330.2910766601562	376.835693359375	1065.520263671875	-361.6554565429688	318.0127868652344	1050.416625976562	-300.6197204589844	445.7688293457031	842.157470703125	-324.2275695800781	395.9855041503906	836.3513793945312	-389.671630859375	383.1811828613281	961.345458984375	-376.5082397460938	428.1730651855469	664.6953125	-336.0044860839844	400.4053955078125	750.06787109375	-384.6932067871094	454.6299133300781	745.8699951171875	-349.7874145507812	399.9476928710938	1381.691284179688	51.27754592895508	385.4061584472656	1319.243896484375	112.0503005981445	387.5888366699219	1062.206909179688	167.8976745605469	369.6228942871094	1043.922973632812	74.45576477050781	558.9345092773438	880.4049072265625	149.7681579589844	518.9996337890625	860.0672607421875	208.5055236816406	423.9568786621094	1000.960388183594	186.3958282470703	603.8285522460938	713.5300903320312	159.7230224609375	603.0321044921875	785.1560668945312	174.5238800048828	545.1934204101562	774.5704956054688	211.0247650146484	368.9416809082031	1577.0478515625	-23.30041122436523	511.8821411132812	1603.915283203125	-161.8080444335938	498.75537109375	1608.555053710938	-39.48428344726562	368.1494750976562	1565.9970703125	-185.2494659423828	416.7882690429688	939.973876953125	91.43022918701172	539.3961181640625	961.265380859375	29.76650810241699	512.82470703125	956.4171142578125	-231.1735076904297	545.1968383789062	467.4718017578125	-221.9190368652344	507.7568969726562	604.1886596679688	-244.2345123291016	430.7464904785156	40.65751266479492	-181.2393798828125	493.6195678710938	235.6494750976562	-210.2156066894531	645.007080078125	34.13552093505859	-111.9552612304688	561.9842529296875	35.38519287109375	-81.34819030761719	559.7456665039062	41.46691131591797	-185.1484222412109	388.3330993652344	35.99348449707031	-127.2859039306641	583.9841918945312	476.4268798828125	59.53055572509766	544.13916015625	729.3404541015625	81.18885803222656	282.6339721679688	163.0557098388672	83.01765441894531	526.3983154296875	365.452392578125	60.21323776245117	395.7766723632812	45.27684020996094	1.711369872093201	340.6230163574219	92.08049774169922	-21.09377098083496	332.1712341308594	92.97872161865234	80.66535186767578	217.8185882568359	206.3907470703125	35.9796142578125	394.6729736328125	949.582763671875	-267.1479797363281	nan	nan	nan	
293	2.92	316.6632080078125	955.2864990234375	-17.09482383728027	306.8720397949219	950.373291015625	-149.5305633544922	314.1004028320312	1041.509399414062	-81.02601623535156	552.6763916015625	1204.961303710938	-90.96055603027344	307.9651184082031	1144.154052734375	-89.18389892578125	336.7581787109375	1395.145141601562	-107.8282165527344	493.9599304199219	1321.572998046875	-96.44358825683594	300.403076171875	1250.23779296875	-35.60543441772461	325.1760864257812	1355.75439453125	-209.3805999755859	413.8426513671875	1371.534057617188	-260.2741394042969	377.5645446777344	1259.025268554688	-328.7481994628906	365.0538940429688	1064.699462890625	-360.325927734375	307.811279296875	1049.49072265625	-298.237548828125	434.0813598632812	841.1201171875	-325.0150451660156	382.9164428710938	835.638427734375	-389.395751953125	370.8356323242188	960.58349609375	-375.6983642578125	416.0375061035156	663.7485961914062	-337.25048828125	387.3237609863281	749.3770751953125	-384.9330139160156	442.3331604003906	744.9491577148438	-351.1749572753906	391.467041015625	1380.738037109375	52.35610961914062	376.995361328125	1318.182495117188	113.0675659179688	379.0318298339844	1061.360717773438	168.7457122802734	361.3965148925781	1042.906372070312	75.18778991699219	550.1265869140625	879.2293090820312	151.1016540527344	510.0270690917969	858.9776000976562	209.7694854736328	415.1929321289062	999.9512939453125	187.3147583007812	595.062255859375	712.4631958007812	161.5800628662109	594.2171630859375	784.1301879882812	176.2431945800781	536.2319946289062	773.5305786132812	212.5378570556641	359.8209838867188	1575.984008789062	-22.515380859375	502.3615417480469	1603.084838867188	-161.5271453857422	489.4465942382812	1608.052612304688	-39.17492294311523	358.75732421875	1564.387939453125	-184.5381164550781	409.1611938476562	938.5469970703125	91.62767028808594	532.0159301757812	959.5608520507812	30.57125282287598	505.4096069335938	956.123046875	-230.4289703369141	542.1878662109375	468.1271057128906	-221.9707641601562	503.1828002929688	604.369384765625	-244.3532867431641	430.6958618164062	40.47055053710938	-181.485595703125	492.3597106933594	235.8902282714844	-210.4662017822266	644.9946899414062	34.1090087890625	-111.9149169921875	561.9620971679688	35.45124816894531	-81.44474029541016	559.7444458007812	41.36725616455078	-185.2698669433594	388.4235229492188	35.94672393798828	-127.5840835571289	564.0816040039062	471.4703674316406	60.6126708984375	531.8544921875	725.5803833007812	81.15276336669922	254.2603759765625	166.1896209716797	82.53312683105469	503.697998046875	362.0209350585938	60.96497344970703	362.2319946289062	45.85246658325195	-1.052265405654907	308.8744201660156	94.49172973632812	-22.89080238342285	300.773681640625	94.0196533203125	78.98883819580078	191.0560760498047	212.4585723876953	36.15509033203125	387.2986755371094	949.2593994140625	-266.8113708496094	nan	nan	nan	
